<?xml version="1.0" encoding="UTF-8"?>
<svg xmlns="http://www.w3.org/2000/svg" xmlns:xlink="http://www.w3.org/1999/xlink" viewBox="0 0 128 128" width="128px" height="128px">
<g id="surface56584280">
<path style=" stroke:none;fill-rule:nonzero;fill:rgb(100%,100%,100%);fill-opacity:1;" d="M 49 1 C 47.339844 1 46 2.339844 46 4 C 46 5.660156 47.339844 7 49 7 L 79 7 C 80.660156 7 82 5.660156 82 4 C 82 2.339844 80.660156 1 79 1 Z M 24 15 C 16.828125 15 11 20.828125 11 28 C 11 35.171875 16.828125 41 24 41 L 101 41 L 101 104 C 101 113.371094 93.371094 121 84 121 L 44 121 C 34.628906 121 27 113.371094 27 104 L 27 52 C 27 50.339844 25.660156 49 24 49 C 22.339844 49 21 50.339844 21 52 L 21 104 C 21 116.679688 31.320312 127 44 127 L 84 127 C 96.679688 127 107 116.679688 107 104 L 107 40.640625 C 112.71875 39.28125 117 34.140625 117 28 C 117 20.828125 111.171875 15 104 15 Z M 24 21 L 104 21 C 107.859375 21 111 24.140625 111 28 C 111 31.859375 107.859375 35 104 35 L 24 35 C 20.140625 35 17 31.859375 17 28 C 17 24.140625 20.140625 21 24 21 Z M 50 55 C 48.339844 55 47 56.339844 47 58 L 47 104 C 47 105.660156 48.339844 107 50 107 C 51.660156 107 53 105.660156 53 104 L 53 58 C 53 56.339844 51.660156 55 50 55 Z M 78 55 C 76.339844 55 75 56.339844 75 58 L 75 104 C 75 105.660156 76.339844 107 78 107 C 79.660156 107 81 105.660156 81 104 L 81 58 C 81 56.339844 79.660156 55 78 55 Z M 78 55 "/>
</g>
</svg>
